<svg xmlns="http://www.w3.org/2000/svg" viewBox="0 0 1024 640" width="1024" height="640"><g><rect x="207" y="28.5" width="64" height="91" rx="3" fill="#171426" fill-opacity="0.22"/><path d="M211,30.5 Q239.0,27.5 267,31.5" fill="none" stroke="#7fb3d9" stroke-width="3.0" stroke-linecap="round" stroke-opacity="0.95"/><path d="M269,33.5 Q272,74.0 268,114.5" fill="none" stroke="#7fb3d9" stroke-width="3.0" stroke-linecap="round" stroke-opacity="0.8"/><path d="M267,117.5 Q239.0,120.5 211,116.5" fill="none" stroke="#7fb3d9" stroke-width="3.0" stroke-linecap="round" stroke-opacity="0.95"/><path d="M209,114.5 Q206,74.0 210,33.5" fill="none" stroke="#7fb3d9" stroke-width="3.0" stroke-linecap="round" stroke-opacity="0.8"/><path d="M230.0,61.0 h18 v22 h-18 Z M227.0,65.0 v22 h18" fill="none" stroke="#7fb3d9" stroke-width="1.1" stroke-opacity="0.32" stroke-linejoin="round"/></g><g><rect x="768" y="28.5" width="64" height="91" rx="3" fill="#171426" fill-opacity="0.22"/><path d="M772,30.5 Q800.0,27.5 828,31.5" fill="none" stroke="#7fb3d9" stroke-width="3.0" stroke-linecap="round" stroke-opacity="0.95"/><path d="M830,33.5 Q833,74.0 829,114.5" fill="none" stroke="#7fb3d9" stroke-width="3.0" stroke-linecap="round" stroke-opacity="0.8"/><path d="M828,117.5 Q800.0,120.5 772,116.5" fill="none" stroke="#7fb3d9" stroke-width="3.0" stroke-linecap="round" stroke-opacity="0.95"/><path d="M770,114.5 Q767,74.0 771,33.5" fill="none" stroke="#7fb3d9" stroke-width="3.0" stroke-linecap="round" stroke-opacity="0.8"/><path d="M791.0,61.0 h18 v22 h-18 Z M788.0,65.0 v22 h18" fill="none" stroke="#7fb3d9" stroke-width="1.1" stroke-opacity="0.32" stroke-linejoin="round"/></g><g><rect x="207" y="463.5" width="64" height="91" rx="3" fill="#171426" fill-opacity="0.22"/><path d="M211,465.5 Q239.0,462.5 267,466.5" fill="none" stroke="#f0a6c8" stroke-width="3.0" stroke-linecap="round" stroke-opacity="0.95"/><path d="M269,468.5 Q272,509.0 268,549.5" fill="none" stroke="#f0a6c8" stroke-width="3.0" stroke-linecap="round" stroke-opacity="0.8"/><path d="M267,552.5 Q239.0,555.5 211,551.5" fill="none" stroke="#f0a6c8" stroke-width="3.0" stroke-linecap="round" stroke-opacity="0.95"/><path d="M209,549.5 Q206,509.0 210,468.5" fill="none" stroke="#f0a6c8" stroke-width="3.0" stroke-linecap="round" stroke-opacity="0.8"/><path d="M230.0,496.0 h18 v22 h-18 Z M227.0,500.0 v22 h18" fill="none" stroke="#f0a6c8" stroke-width="1.1" stroke-opacity="0.32" stroke-linejoin="round"/></g><g><rect x="768" y="463.5" width="64" height="91" rx="3" fill="#171426" fill-opacity="0.22"/><path d="M772,465.5 Q800.0,462.5 828,466.5" fill="none" stroke="#f0a6c8" stroke-width="3.0" stroke-linecap="round" stroke-opacity="0.95"/><path d="M830,468.5 Q833,509.0 829,549.5" fill="none" stroke="#f0a6c8" stroke-width="3.0" stroke-linecap="round" stroke-opacity="0.8"/><path d="M828,552.5 Q800.0,555.5 772,551.5" fill="none" stroke="#f0a6c8" stroke-width="3.0" stroke-linecap="round" stroke-opacity="0.95"/><path d="M770,549.5 Q767,509.0 771,468.5" fill="none" stroke="#f0a6c8" stroke-width="3.0" stroke-linecap="round" stroke-opacity="0.8"/><path d="M791.0,496.0 h18 v22 h-18 Z M788.0,500.0 v22 h18" fill="none" stroke="#f0a6c8" stroke-width="1.1" stroke-opacity="0.32" stroke-linejoin="round"/></g></svg>