<svg xmlns="http://www.w3.org/2000/svg" viewBox="0 0 1920 1080" width="1920" height="1080"><defs><radialGradient id="halo" cx="0.5" cy="0.5" r="0.62"><stop offset="0" stop-color="#4fd8ff" stop-opacity="0.40"/><stop offset="0.45" stop-color="#4fd8ff" stop-opacity="0.13"/><stop offset="1" stop-color="#060b10" stop-opacity="0"/></radialGradient><linearGradient id="plat" x1="0" y1="0" x2="0.2" y2="1"><stop offset="0" stop-color="#7b8b9b" stop-opacity="0.55"/><stop offset="0.6" stop-color="#33404d" stop-opacity="0.85"/><stop offset="1" stop-color="#060b10" stop-opacity="0.95"/></linearGradient><linearGradient id="mist" x1="0" y1="0" x2="0" y2="1"><stop offset="0" stop-color="#4fd8ff" stop-opacity="0"/><stop offset="0.6" stop-color="#4fd8ff" stop-opacity="0.11"/><stop offset="1" stop-color="#4fd8ff" stop-opacity="0.22"/></linearGradient><filter id="bg1" x="-60%" y="-60%" width="220%" height="220%"><feGaussianBlur stdDeviation="9" result="b"/><feMerge><feMergeNode in="b"/><feMergeNode in="b"/><feMergeNode in="SourceGraphic"/></feMerge></filter></defs><rect width="1920" height="1080" fill="#060b10"/><ellipse cx="960" cy="540" rx="900" ry="530" fill="url(#halo)"/><g transform="translate(1779,540) rotate(-30)"><rect x="-9" y="-9" width="18" height="13" fill="url(#plat)" stroke="#33404d" stroke-width="1.5" stroke-opacity="0.7"/><path d="M-9,-3 H9" stroke="#ffffff" stroke-width="1" stroke-opacity="0.12"/></g><g transform="translate(1406,1016) rotate(13)"><rect x="-28" y="-28" width="55" height="38" fill="url(#plat)" stroke="#33404d" stroke-width="1.5" stroke-opacity="0.7"/><path d="M-28,-8 H28" stroke="#ffffff" stroke-width="1" stroke-opacity="0.12"/></g><g transform="translate(418,1052) rotate(-4)"><rect x="-23" y="-23" width="46" height="32" fill="url(#plat)" stroke="#33404d" stroke-width="1.5" stroke-opacity="0.7"/><path d="M-23,-7 H23" stroke="#ffffff" stroke-width="1" stroke-opacity="0.12"/></g><g transform="translate(47,512) rotate(-21)"><rect x="-18" y="-18" width="37" height="26" fill="url(#plat)" stroke="#33404d" stroke-width="1.5" stroke-opacity="0.7"/><path d="M-18,-6 H18" stroke="#ffffff" stroke-width="1" stroke-opacity="0.12"/></g><g transform="translate(514,1) rotate(22)"><rect x="-14" y="-14" width="28" height="20" fill="url(#plat)" stroke="#33404d" stroke-width="1.5" stroke-opacity="0.7"/><path d="M-14,-4 H14" stroke="#ffffff" stroke-width="1" stroke-opacity="0.12"/></g><g transform="translate(1481,101) rotate(5)"><rect x="-10" y="-10" width="19" height="13" fill="url(#plat)" stroke="#33404d" stroke-width="1.5" stroke-opacity="0.7"/><path d="M-10,-3 H10" stroke="#ffffff" stroke-width="1" stroke-opacity="0.12"/></g><g transform="translate(1965,602) rotate(-12)"><rect x="-28" y="-28" width="56" height="39" fill="url(#plat)" stroke="#33404d" stroke-width="1.5" stroke-opacity="0.7"/><path d="M-28,-8 H28" stroke="#ffffff" stroke-width="1" stroke-opacity="0.12"/></g><g transform="translate(1312,1030) rotate(-29)"><rect x="-24" y="-24" width="47" height="33" fill="url(#plat)" stroke="#33404d" stroke-width="1.5" stroke-opacity="0.7"/><path d="M-24,-7 H24" stroke="#ffffff" stroke-width="1" stroke-opacity="0.12"/></g><g transform="translate(342,1007) rotate(14)"><rect x="-19" y="-19" width="38" height="27" fill="url(#plat)" stroke="#33404d" stroke-width="1.5" stroke-opacity="0.7"/><path d="M-19,-6 H19" stroke="#ffffff" stroke-width="1" stroke-opacity="0.12"/></g><g transform="translate(75,457) rotate(-3)"><rect x="-14" y="-14" width="29" height="20" fill="url(#plat)" stroke="#33404d" stroke-width="1.5" stroke-opacity="0.7"/><path d="M-14,-4 H14" stroke="#ffffff" stroke-width="1" stroke-opacity="0.12"/></g><g transform="translate(619,-13) rotate(-20)"><rect x="-10" y="-10" width="20" height="14" fill="url(#plat)" stroke="#33404d" stroke-width="1.5" stroke-opacity="0.7"/><path d="M-10,-3 H10" stroke="#ffffff" stroke-width="1" stroke-opacity="0.12"/></g><g transform="translate(1543,144) rotate(23)"><rect x="-28" y="-28" width="57" height="40" fill="url(#plat)" stroke="#33404d" stroke-width="1.5" stroke-opacity="0.7"/><path d="M-28,-9 H28" stroke="#ffffff" stroke-width="1" stroke-opacity="0.12"/></g><g transform="translate(1930,662) rotate(6)"><rect x="-24" y="-24" width="48" height="34" fill="url(#plat)" stroke="#33404d" stroke-width="1.5" stroke-opacity="0.7"/><path d="M-24,-7 H24" stroke="#ffffff" stroke-width="1" stroke-opacity="0.12"/></g><g transform="translate(1218,1039) rotate(-11)"><rect x="-20" y="-20" width="39" height="27" fill="url(#plat)" stroke="#33404d" stroke-width="1.5" stroke-opacity="0.7"/><path d="M-20,-6 H20" stroke="#ffffff" stroke-width="1" stroke-opacity="0.12"/></g><g transform="translate(276,958) rotate(-28)"><rect x="-15" y="-15" width="30" height="21" fill="url(#plat)" stroke="#33404d" stroke-width="1.5" stroke-opacity="0.7"/><path d="M-15,-4 H15" stroke="#ffffff" stroke-width="1" stroke-opacity="0.12"/></g><g transform="translate(113,406) rotate(15)"><rect x="-10" y="-10" width="21" height="15" fill="url(#plat)" stroke="#33404d" stroke-width="1.5" stroke-opacity="0.7"/><path d="M-10,-3 H10" stroke="#ffffff" stroke-width="1" stroke-opacity="0.12"/></g><g transform="translate(723,-21) rotate(-2)"><rect x="-29" y="-29" width="58" height="41" fill="url(#plat)" stroke="#33404d" stroke-width="1.5" stroke-opacity="0.7"/><path d="M-29,-9 H29" stroke="#ffffff" stroke-width="1" stroke-opacity="0.12"/></g><g transform="translate(1597,189) rotate(-19)"><rect x="-24" y="-24" width="49" height="34" fill="url(#plat)" stroke="#33404d" stroke-width="1.5" stroke-opacity="0.7"/><path d="M-24,-7 H24" stroke="#ffffff" stroke-width="1" stroke-opacity="0.12"/></g><g transform="translate(1885,717) rotate(24)"><rect x="-20" y="-20" width="40" height="28" fill="url(#plat)" stroke="#33404d" stroke-width="1.5" stroke-opacity="0.7"/><path d="M-20,-6 H20" stroke="#ffffff" stroke-width="1" stroke-opacity="0.12"/></g><g transform="translate(1125,1041) rotate(7)"><rect x="-16" y="-16" width="31" height="22" fill="url(#plat)" stroke="#33404d" stroke-width="1.5" stroke-opacity="0.7"/><path d="M-16,-5 H16" stroke="#ffffff" stroke-width="1" stroke-opacity="0.12"/></g><g transform="translate(220,907) rotate(-10)"><rect x="-11" y="-11" width="22" height="15" fill="url(#plat)" stroke="#33404d" stroke-width="1.5" stroke-opacity="0.7"/><path d="M-11,-3 H11" stroke="#ffffff" stroke-width="1" stroke-opacity="0.12"/></g><g transform="translate(159,358) rotate(-27)"><rect x="-30" y="-30" width="59" height="41" fill="url(#plat)" stroke="#33404d" stroke-width="1.5" stroke-opacity="0.7"/><path d="M-30,-9 H30" stroke="#ffffff" stroke-width="1" stroke-opacity="0.12"/></g><g transform="translate(826,-21) rotate(16)"><rect x="-25" y="-25" width="50" height="35" fill="url(#plat)" stroke="#33404d" stroke-width="1.5" stroke-opacity="0.7"/><path d="M-25,-8 H25" stroke="#ffffff" stroke-width="1" stroke-opacity="0.12"/></g><g transform="translate(1640,237) rotate(-1)"><rect x="-20" y="-20" width="41" height="29" fill="url(#plat)" stroke="#33404d" stroke-width="1.5" stroke-opacity="0.7"/><path d="M-20,-6 H20" stroke="#ffffff" stroke-width="1" stroke-opacity="0.12"/></g><g transform="translate(1831,769) rotate(-18)"><rect x="-16" y="-16" width="32" height="22" fill="url(#plat)" stroke="#33404d" stroke-width="1.5" stroke-opacity="0.7"/><path d="M-16,-5 H16" stroke="#ffffff" stroke-width="1" stroke-opacity="0.12"/></g><g transform="translate(1034,1037) rotate(25)"><rect x="-12" y="-12" width="23" height="16" fill="url(#plat)" stroke="#33404d" stroke-width="1.5" stroke-opacity="0.7"/><path d="M-12,-3 H12" stroke="#ffffff" stroke-width="1" stroke-opacity="0.12"/></g><circle cx="0" cy="0" r="1.5" fill="#ff9d6e" fill-opacity="0.35"/><circle cx="397" cy="233" r="2.5" fill="#4fd8ff" fill-opacity="0.35"/><circle cx="794" cy="466" r="3.5" fill="#4fd8ff" fill-opacity="0.35"/><circle cx="1191" cy="699" r="1.5" fill="#4fd8ff" fill-opacity="0.35"/><circle cx="1588" cy="932" r="2.5" fill="#4fd8ff" fill-opacity="0.35"/><circle cx="65" cy="85" r="3.5" fill="#ff9d6e" fill-opacity="0.35"/><circle cx="462" cy="318" r="1.5" fill="#4fd8ff" fill-opacity="0.35"/><circle cx="859" cy="551" r="2.5" fill="#4fd8ff" fill-opacity="0.35"/><circle cx="1256" cy="784" r="3.5" fill="#4fd8ff" fill-opacity="0.35"/><circle cx="1653" cy="1017" r="1.5" fill="#4fd8ff" fill-opacity="0.35"/><circle cx="130" cy="170" r="2.5" fill="#ff9d6e" fill-opacity="0.35"/><circle cx="527" cy="403" r="3.5" fill="#4fd8ff" fill-opacity="0.35"/><circle cx="924" cy="636" r="1.5" fill="#4fd8ff" fill-opacity="0.35"/><circle cx="1321" cy="869" r="2.5" fill="#4fd8ff" fill-opacity="0.35"/><circle cx="1718" cy="22" r="3.5" fill="#4fd8ff" fill-opacity="0.35"/><circle cx="195" cy="255" r="1.5" fill="#ff9d6e" fill-opacity="0.35"/><circle cx="592" cy="488" r="2.5" fill="#4fd8ff" fill-opacity="0.35"/><circle cx="989" cy="721" r="3.5" fill="#4fd8ff" fill-opacity="0.35"/><circle cx="1386" cy="954" r="1.5" fill="#4fd8ff" fill-opacity="0.35"/><circle cx="1783" cy="107" r="2.5" fill="#4fd8ff" fill-opacity="0.35"/><circle cx="260" cy="340" r="3.5" fill="#ff9d6e" fill-opacity="0.35"/><circle cx="657" cy="573" r="1.5" fill="#4fd8ff" fill-opacity="0.35"/><circle cx="1054" cy="806" r="2.5" fill="#4fd8ff" fill-opacity="0.35"/><circle cx="1451" cy="1039" r="3.5" fill="#4fd8ff" fill-opacity="0.35"/><circle cx="1848" cy="192" r="1.5" fill="#4fd8ff" fill-opacity="0.35"/><circle cx="325" cy="425" r="2.5" fill="#ff9d6e" fill-opacity="0.35"/><circle cx="722" cy="658" r="3.5" fill="#4fd8ff" fill-opacity="0.35"/><circle cx="1119" cy="891" r="1.5" fill="#4fd8ff" fill-opacity="0.35"/><circle cx="1516" cy="44" r="2.5" fill="#4fd8ff" fill-opacity="0.35"/><circle cx="1913" cy="277" r="3.5" fill="#4fd8ff" fill-opacity="0.35"/><circle cx="390" cy="510" r="1.5" fill="#ff9d6e" fill-opacity="0.35"/><circle cx="787" cy="743" r="2.5" fill="#4fd8ff" fill-opacity="0.35"/><circle cx="1184" cy="976" r="3.5" fill="#4fd8ff" fill-opacity="0.35"/><circle cx="1581" cy="129" r="1.5" fill="#4fd8ff" fill-opacity="0.35"/><circle cx="58" cy="362" r="2.5" fill="#4fd8ff" fill-opacity="0.35"/><circle cx="455" cy="595" r="3.5" fill="#ff9d6e" fill-opacity="0.35"/><circle cx="852" cy="828" r="1.5" fill="#4fd8ff" fill-opacity="0.35"/><circle cx="1249" cy="1061" r="2.5" fill="#4fd8ff" fill-opacity="0.35"/><circle cx="1646" cy="214" r="3.5" fill="#4fd8ff" fill-opacity="0.35"/><circle cx="123" cy="447" r="1.5" fill="#4fd8ff" fill-opacity="0.35"/><circle cx="520" cy="680" r="2.5" fill="#ff9d6e" fill-opacity="0.35"/><circle cx="917" cy="913" r="3.5" fill="#4fd8ff" fill-opacity="0.35"/><circle cx="1314" cy="66" r="1.5" fill="#4fd8ff" fill-opacity="0.35"/><circle cx="1711" cy="299" r="2.5" fill="#4fd8ff" fill-opacity="0.35"/><circle cx="188" cy="532" r="3.5" fill="#4fd8ff" fill-opacity="0.35"/><circle cx="585" cy="765" r="1.5" fill="#ff9d6e" fill-opacity="0.35"/><rect y="700" width="1920" height="380" fill="url(#mist)"/><g filter="url(#bg1)"><ellipse cx="960" cy="905" rx="700" ry="52" fill="#4fd8ff" fill-opacity="0.16"/></g></svg>